#!OML:ASF \\sashay\E\Suitcase\Project 1\Capture day 1\Session 1\Male1.ASF
:FULLY-SPECIFIED
:DEGREES
275
root 0.117443 17.5473 -37.8653 10.1571 -10.2296 3.91194
lowerback 33.5531 -0.730607 9.45709
upperback 12.9902 2.75089 15.5593
thorax -3.35293 0.992906 10.7601
lowerneck -12.6459 -5.48662 -4.40905
upperneck 4.14826 -6.25455 -6.54399
head 3.5377 -3.53223 -1.84742
rclavicle 5.08889e-014 -6.99722e-014
rhumerus 5.70541 0.220941 -49.0596
rradius 24.6349
rwrist -14.7981
rhand -13.299 18.9105
rfingers 7.12502
rthumb 12.805 -10.6767
lclavicle 5.08889e-014 -6.99722e-014
lhumerus -32.7088 -9.03642 100.134
lradius 57.0894
lwrist 10.0731
lhand -5.57226 38.9624
lfingers 7.12502
lthumb 20.2435 67.9275
rfemur -29.4094 0.690363 16.3442
rtibia 34.1724
rfoot -14.4559 1.90145
rtoes 15.1523
lfemur -22.5652 1.41528 -18.2422
ltibia 28.6721
lfoot -12.4523 9.93744
ltoes -9.18487
276
root 0.0958179 17.5396 -37.8375 10.0199 -10.2357 3.75722
lowerback 33.3158 -0.748928 9.44649
upperback 12.7904 2.70427 15.2778
thorax -3.45176 0.983984 10.4589
lowerneck -11.9099 -5.49338 -4.72052
upperneck 3.30988 -6.35889 -5.93347
head 3.12756 -3.52453 -1.53798
rclavicle -2.54444e-014 -3.49861e-014
rhumerus 4.7093 0.218422 -49.8552
rradius 24.9214
rwrist -14.6786
rhand -13.6366 18.4744
rfingers 7.12502
rthumb 12.4795 -11.133
lclavicle -2.54444e-014 -3.49861e-014
lhumerus -33.1219 -9.28655 99.8418
lradius 56.7254
lwrist 10.0827
lhand -5.40578 39.0776
lfingers 7.12502
lthumb 20.4035 68.0256
rfemur -29.026 0.666862 16.6131
rtibia 34.0036
rfoot -14.4378 2.04023
rtoes 13.1841
lfemur -22.2926 1.50862 -18.0139
ltibia 28.9474
lfoot -12.2898 9.81999
ltoes -8.85023
277
root 0.0746189 17.5407 -37.8067 9.82517 -9.95796 3.65966
lowerback 33.1657 -0.78335 9.73317
upperback 12.5441 2.74398 14.8467
thorax -3.60167 1.02921 9.8042
lowerneck -12.9225 -5.30738 -3.48063
upperneck 3.83025 -6.15858 -6.57013
head 3.4486 -3.46177 -2.00971
rclavicle -3.49861e-014 4.13472e-014
rhumerus 3.34619 -0.444838 -50.8246
rradius 25.4454
rwrist -14.5502
rhand -13.8465 18.8134
rfingers 7.12502
rthumb 12.2772 -10.8062
lclavicle -3.49861e-014 4.13472e-014
lhumerus -33.4277 -10.0913 99.2255
lradius 56.6672
lwrist 10.1312
lhand -5.22104 39.6021
lfingers 7.12502
lthumb 20.581 68.5311
rfemur -28.5069 0.468976 16.807
rtibia 33.828
rfoot -14.5673 2.07183
rtoes 15.1331
lfemur -22.14 1.29979 -17.791
ltibia 29.2369
lfoot -12.4006 9.73298
ltoes -9.49968
278
root 0.0559876 17.5472 -37.7749 9.59326 -9.9406 3.5237
lowerback 33.0727 -1.09831 9.57835
upperback 12.2114 2.33886 14.6065
thorax -3.88027 0.836076 9.75473
lowerneck -15.9797 -3.07064 -0.456023
upperneck 6.69044 -2.9588 -11.0996
head 4.46409 -2.23481 -3.64659
rclavicle -3.49861e-014 -7.95139e-015
rhumerus 2.35639 0.722837 -51.4766
rradius 26.0456
rwrist -14.7177
rhand -14.0645 18.6637
rfingers 7.12502
rthumb 12.0669 -10.9684
lclavicle -3.49861e-014 -7.95139e-015
lhumerus -34.0486 -9.19245 98.959
lradius 56.2122
lwrist 9.65982
lhand -5.1884 39.431
lfingers 7.12502
lthumb 20.6124 68.3566
rfemur -27.9726 0.405407 17.0384
rtibia 33.559
rfoot -14.5828 2.18289
rtoes 14.2276
lfemur -21.9094 1.49354 -17.6191
ltibia 29.6232
lfoot -12.4172 9.46763
ltoes -7.80915
279
root 0.0331337 17.5507 -37.7417 9.4228 -9.75637 3.39086
lowerback 32.6202 -1.29075 9.46701
upperback 12.1188 1.99484 14.3943
thorax -3.76235 0.681416 9.68768
lowerneck -12.1537 -4.74064 -4.15105
upperneck 3.00758 -5.40039 -6.37703
head 3.05102 -3.04947 -1.72027
rclavicle 2.54444e-014 1.68569e-013
rhumerus 1.9603 0.532602 -52.3315
rradius 25.9948
rwrist -14.1554
rhand -13.9052 18.8766
rfingers 7.12502
rthumb 12.2205 -10.7464
lclavicle 2.54444e-014 1.68569e-013
lhumerus -34.0718 -8.83381 98.5342
lradius 55.7415
lwrist 9.48741
lhand -4.96077 39.6362
lfingers 7.12502
lthumb 20.8311 68.5379
rfemur -27.4244 0.289509 17.2534
rtibia 33.4007
rfoot -14.787 2.18337
rtoes 15.7422
lfemur -21.8375 1.33682 -17.396
ltibia 29.8932
lfoot -12.4134 9.59108
ltoes -9.24932
280
root 0.0133822 17.5596 -37.7056 9.09602 -9.83605 3.20378
lowerback 32.5341 -1.25549 9.42106
upperback 12.016 2.01381 14.187
thorax -3.83186 0.697043 9.47195
lowerneck -12.3656 -4.6336 -4.15557
upperneck 2.68893 -5.26793 -6.24264
head 2.9859 -2.97135 -1.66438
rclavicle -2.54444e-014 7.31528e-014
rhumerus 0.970934 0.153339 -52.9803
rradius 26.1545
rwrist -13.7547
rhand -13.645 19.7322
rfingers 7.12502
rthumb 12.4714 -9.87564
lclavicle -2.54444e-014 7.31528e-014
lhumerus -34.1605 -8.83337 98.322
lradius 55.3926
lwrist 9.32535
lhand -4.99261 40.2579
lfingers 7.12502
lthumb 20.8005 69.163
rfemur -26.782 0.422784 17.4816
rtibia 33.1355
rfoot -14.7978 2.26739
rtoes 15.3123
lfemur -21.4193 1.299 -17.0907
ltibia 30.2398
lfoot -12.5308 9.42896
ltoes -5.74037
281
root -0.00528654 17.5574 -37.6742 9.06999 -9.7783 3.00619
lowerback 31.9259 -1.2117 9.42604
upperback 11.8746 1.98247 14.006
thorax -3.73376 0.697553 9.26835
lowerneck -12.3369 -4.60769 -4.08105
upperneck 2.36524 -5.26626 -6.26731
head 2.86537 -2.96026 -1.67441
rclavicle -3.18055e-014 1.27222e-014
rhumerus -0.155487 -0.0341058 -53.567
rradius 26.763
rwrist -13.7342
rhand -13.7687 18.9349
rfingers 7.12502
rthumb 12.3522 -10.6802
lclavicle -3.18055e-014 1.27222e-014
lhumerus -34.2959 -8.8953 98.223
lradius 54.8048
lwrist 8.9092
lhand -4.95409 39.648
lfingers 7.12502
lthumb 20.8375 68.549
rfemur -26.4709 0.0799203 17.805
rtibia 32.9666
rfoot -14.931 2.57047
rtoes 16.541
lfemur -21.4684 1.37139 -16.8521
ltibia 30.5468
lfoot -12.543 9.53051
ltoes -8.4696
282
root -0.0316663 17.5644 -37.64 8.81898 -9.3923 2.8283
lowerback 31.592 -1.34007 9.47395
upperback 11.6789 1.81421 13.8666
thorax -3.78643 0.628268 9.13871
lowerneck -11.965 -4.34353 -4.03588
upperneck 1.93665 -4.96417 -6.37397
head 2.64853 -2.79296 -1.67325
rclavicle -4.45278e-014 1.43125e-014
rhumerus -0.76468 -0.7643 -54.2807
rradius 26.2572
rwrist -13.1648
rhand -13.4569 19.7537
rfingers 7.12502
rthumb 12.6527 -9.84304
lclavicle -4.45278e-014 1.43125e-014
lhumerus -34.5155 -8.92611 98.0328
lradius 54.3554
lwrist 8.55978
lhand -4.99863 39.7477
lfingers 7.12502
lthumb 20.7947 68.6534
rfemur -25.7849 -0.121263 18.1185
rtibia 32.6822
rfoot -15.0621 2.46704
rtoes 15.7038
lfemur -21.21 1.28016 -16.5598
ltibia 30.9561
lfoot -12.5308 9.24199
ltoes -6.89739
283
root -0.0517246 17.5722 -37.6036 8.63962 -9.28798 2.62479
lowerback 31.4543 -1.22917 9.76232
upperback 11.3807 2.04457 13.5093
thorax -4.03161 0.757313 8.51143
lowerneck -12.2741 -4.37318 -3.43805
upperneck 1.87379 -5.07206 -6.42089
head 2.66722 -2.84456 -1.80713
rclavicle 7.63333e-014 2.08326e-013
rhumerus -2.45573 -1.51144 -54.9437
rradius 26.8401
rwrist -13.1053
rhand -13.5154 19.2152
rfingers 7.12502
rthumb 12.5963 -10.3851
lclavicle 7.63333e-014 2.08326e-013
lhumerus -34.5836 -9.89648 97.6499
lradius 53.7152
lwrist 8.12591
lhand -4.67688 40.1008
lfingers 7.12502
lthumb 21.1038 68.9723
rfemur -25.2478 -0.284001 18.4306
rtibia 32.4618
rfoot -15.0939 2.4505
rtoes 15.9844
lfemur -21.094 1.36157 -16.2675
ltibia 31.3942
lfoot -12.3742 9.00476
ltoes -7.91017
284
root -0.0711921 17.5705 -37.5695 8.43623 -9.24378 2.4161
lowerback 31.1916 -1.48735 9.63576
upperback 11.1534 1.66912 13.3207
thorax -4.1394 0.579571 8.49024
lowerneck -11.9913 -4.14189 -3.91541
upperneck 1.44246 -4.745 -6.20604
head 2.48831 -2.65961 -1.61296
rclavicle 1.27222e-014 1.11319e-013
rhumerus -3.37255 -0.0845347 -55.6128
rradius 27.5177
rwrist -13.3483
rhand -13.7427 19.2481
rfingers 7.12502
rthumb 12.3771 -10.3655
lclavicle 1.27222e-014 1.11319e-013
lhumerus -34.9468 -9.0356 97.3334
lradius 53.4751
lwrist 7.68171
lhand -4.41267 40.4245
lfingers 7.12502
lthumb 21.3576 69.2675
rfemur -24.6556 -0.171998 18.6694
rtibia 32.1425
rfoot -15.2397 2.55233
rtoes 16.5975
lfemur -20.9466 1.17184 -15.9442
ltibia 31.9014
lfoot -12.5635 8.81584
ltoes -5.56184
